<?xml version="1.0" encoding="UTF-8"?>
<svg version="1.1" viewBox="0 0 2048 1352" width="736" height="486" xmlns="http://www.w3.org/2000/svg">
<path transform="translate(0)" d="m0 0h2048v1352h-2048z" fill="#F8F8F8"/>
<path transform="translate(1170,102)" d="m0 0h13l11 2 8 5 5 6 2 5v16l-5 15-3 5h15l12 4 10 6 12 11 7 10 5 10 1 8 36 4h39l37-4 22-4 5-2 12-18 8-10 7-8 10-7 9-4 5-1h14l12 4 16 8 18 8 10 2h11l10-3 13-6 6-1h15l8 3 6 5 5 9 2 10v18l-3 16-4 12-8 16-5 7-2 13-5 12-9 10-6 3h-8l-7 8-12 12-8 7-10 9-11 9-17 14-18 13-15 10-24 13-15 10-16 9-23 10-20 7-22 6-6 2-13 9-14 7-21 7-15 3-1 1h29l31 3 23 4 29 8 20 7 24 11 22 12 17 12 11 9 10 9 13 13 13 17 9 15 7 17 4 16 1 8v12l-2 16 7 8 1 2v8l-5 17-6 12-2 27-4 21-5 15-8 14-9 10-10 7-10 4-6 1h-19l-13-3-8 1h-16l-9-3-8-7-2-4v-4h-18l-7-3-3-3-2-6v-22l3-27 4-15 6-12 5-4 13-6 16-7 2-2v-13l-2-8-4-6v-2l-10-3h-13l-10 3-5 30-7 23-12 26-11 19-13 20-15 22-11 16 1 4 10 19 2 6 1 7v11l-2 12-7 16-5 10-8 18-10 16-1 3 5 4 8 14 4 12 1 6v25l-4 15-8 15-12 14-15 11-7 4h-2l-4 16-2 11v20l3 7 1 1h50l23 3 19 5 16 7 11 7 12 12 8 16 3 14v15l-3 17-4-2-9-3h-26l-5 3-10 18-9 10-4 1-9-7-11-5-21-6-73-14-25-6-8-4-8-9-8-16-10-23-8-14-10-12-10-8-8-5-1-2v-9l7-28 1-11-22 11-27 11-36 12-32 8-26 5-33 4-25 2-6 21-4 19 1 4 16 8 14 8 8 7 6 10 1 4v13l-4 13-8 16-4 5-4-1-10-6-21-6-18-5-17-7-4-2-6 1-12 11-11 12-7 8-8 8-14 7-10 2-11 11-15-8-10-9-5-9-2-6-28-9-6-1h-10l-15 6-1-2v-23l2-8-9-1-15-5-4-1h-11l-8 1 4-20 6-15 7-11 10-8 8-4 7-2 8-1h11l24 3 24 4h8l7-2 9-7 6-9 6-16-6-2-8-3-26-5-31-8-19-6-9-3-30-11-25-11-13-6-16-8-19-10-20-12-18-12-11-8-14-11-12-11-8-7-8-8-9-11-13-17-10-18-6-15-5-19-1-6v-32l5-20 6-15 11-20 13-19 10-13 11-13 12-14 10-11 11-14 3-6v-7l-5-13-11-19-13-18-13-17-8-9-7-8-8-10-4-9-1-9 1-2 5-1h16l20 3 17 5 27 13 18 12 10 8 11 10 8 7 11 12 13 17 9 15 4 10 2 8 1 9v15l-3 21-6 21-9 24-13 28-6 17-2 8 1 12 4 3 23 7 29 6 28 4 22 2 18 1h28l20-1 27-4 15-4 3-1h-10l-7 3-5 1h-17l-12-5-11-8-10-10-7-10-8-15-6-18-8-10-7-16-2-10-1-17-7-9-7-12-8-20-6-23-1-6v-26l3-10 8-13 7-9 12-14 18-18 8-7 10-9 11-9 18-14 18-13 24-16 15-9 13-6 16-3 33-5 3-20 1-6-2-6v-15l2-9 6-10 3-4-1-9-2-16v-29l3-24 6-25 8-21 7-13-1-7-4-11-2-9v-22l3-14 8-17 12-17 13-13v-16l5-8 5-4 4-1h9l11 4 4-1 20-8 14-4 14-2h22l15 3 9 2 18-11 15-8 24-9z" fill="#020303"/>
<path transform="translate(1265,480)" d="m0 0h31l29 3 25 5 29 9 22 9 20 10 22 14 16 13 13 12 11 12 11 15 8 15 6 18 1 6v16l-1 7-3 1-19-4-9-1h-25l-21 3-11 2-9-11 1-8 8-16 9-13 12-13 7-7 7-5-1-1-11 4-14 9-6 5-2-1 6-17-8 7-8 11-9 19-4 10-28 3-3-1-5-19-6-15-7-13-2-2 8 24 3 15 1 9v16l-2 15-5 21-6 16-9 19-11 19-16 25-8 11-9 16-7 15-8 24-9 16-9 11-10 11-11 9-14 10-21 12-20 9-24 8-21 5-21 3h-42l-23-3-21-5-22-8-16-8-11-7-10-8-9-8-10-13-8-16-5-16-2-12v-16h2l7 10 9 9 7 3-11-19-8-20-3-14v-8l4 2 11 9 11 7 13 6 13 3-5-5-11-9-13-12-10-9-9-9-7-8-10-11-13-17-10-15-8-17-2-8v-11l5-10-34 9-29 10-13 5-2 5-4 22-1 1-22 2-21 5-16 6-16 8-13 10-5 4-8-8-7-11-6-14-4-17v-23l4-15 7-13 14-15 10-10 8-7 13-12 11-9 11-10 14-11 15-12 17-12 16-9 10-4 19-3 18-1h25l19 14 18 11 25 12 27 9 17 4 22 3 12 1h19l28-4 26-6 21-7 20-9 16-9 18-13 10-9 6-5 14-16 15-2z" fill="#EE793F"/>
<path transform="translate(1457,168)" d="m0 0h8l12 3 12 8 9 11 3 9h2l1-7 3-3h14l14 7 8 8-2-17 7-5 12-4h8l7 3 6 9 2 7v16l-4 15-7 14-6 7h-9l-16-2h-27l-19 3-18 6-13 7-10 7-5-2-12-11-8-9-7-10h-2l-4 12-1 7v29l-14 3-44 5-82 7-54 4-32 2-27 4-25 6-26 9-16 8-16 10-14 11-14 14-12 17-10 21-7 24-1 7 11-1 19-5 23-8 26-11 43-16 25-9 47-16 48-14 26-7 46-10 50-8 14-5 14-8 12-9 13-11 14-11 18-13 13-8 12-6 12-4 10-2h21l16 3 7 2 3 3 1 5-4 11-4 4-11-1-11-2h-16l-14 3-16 7-13 7-41 26-17 11-20 12-23 12-28 12-27 9-25 6h-3v2l31-2 25-5 21-7 20-9 17-9 26-16 24-16 19-12 23-12 11-4 15-2-4 6-12 13-13 13-11 9-18 14-21 14-23 13-19 8-10 3 1 1 15 1-3 3-16 8-20 8-31 10-26 6-18 3-24 2 14 4 14 2v2l-20 7-24 7-27 5-26 3-15 1h-41l-24-2v2l17 4 15 3-4 4-13 6-14 4-13 2h-29l-11-4-6-4v-4l10-4 42-12 43-15 30-12 23-10 28-13 16-9-9 2-35 14-58 22-36 12-25 7-23 5-16 2h-30l-15-3-8-5-7-8-4-11v-22l3-14 3-11-6 10-6 18-1 6v24l5 15 3 5-1 3-12-10-8-11-4-11-1-15 2-13 5-15 9-16 9-12 9-10 9-9 11-9 12-10 9-6-10 3-16 8-11 7-13 11-10 10-11 15-6-2-11-7-13-13-8-14 1-8 5-16 3 1 8 16 9 10 10 5h5l-8-9-7-11-7-16-4-14v-6l9-15 8-10 5-6 3 1 1 2 5-32 6-18 6-10 9-10 9-7 13-5 11-2h22l13 4 26 12 15 5h4l-11-6-10-8-4-4 17-2h23l21 3 24 7 28 11 25 9 26 7 27 4 15 1h23l34-3 33-5 10-2-2 5-9 10-10 7 9-2 16-8 12-9 11-10 11-14 8-11 9-8z" fill="#08633F"/>
<path transform="translate(517,785)" d="m0 0h12l4 4v8l-7 3-14 5-16 9-13 11-9 10-2 4v4l10-10 16-12 10-6 15-6 3-1h14l2 2v6l-8 8-25 17-10 9-5 9-1 2v12h2l2-6 8-11 7-8 10-8 11-7 14-5h9l8 6v5l-12 11-10 8-10 9-7 12-1 3v7l1 6h2l2-6 7-12 11-12 8-8 13-8 12-5 8 1 6 3 3 2-2 5-11 11-8 7-13 13-7 14v12l3 7 2 1 2-10 5-12 9-13 13-13 13-8 10-4 9 1 5 4 1 4-9 10-14 15-7 11-3 9 1 11 4 8 2 1 1-10 6-16 7-11 9-10 9-8 16-8h9l8 2-2 6-7 10-9 12-8 13-4 10-1 9 4 10 4 4 3-16 5-13 8-14 11-12 8-7 10-6 10-3 11 1-1 6-7 11-10 15-6 13-4 16 1 15 4 10v2h2l2-18 5-18 8-16 7-10 12-12 12-7 11-3 11 1 5 4-1 6-12 21-8 15-4 14v8l3 11h1l4-16 6-16 9-15 9-11 9-10 11-9 11-8 8-4 12-3 17-1 13 2 12 4 6 6 5 12 8 15 9 12 12 14 13 12 17 13 10 7 19 12 16 7 14 7 19 6 18 4 18 2 18 1h15l30-2 22-3 7-1-6 7-13 10-13 8-3 1h-24l-33-4-35-7-30-8-24-9-12-6h-2l4 5 11 7 17 8 30 10 28 7 31 6 13 2-1 3-20 8-10 2-22-3-24-6-26-9-25-12-16-11-8-9 1-4 4-5-8 3-14 8-10 8-7 10-5 11-1 4v19l5 12 9 10-1 9-9 30-2 13 1 11 4 6 16 8 15 8 7 5 5 7 2 10-3 12-5 8-4-2-6-10-1-6h-2l-3 9-2 4-7-1-24-12-20-11-7-1-10 12-15 20-11 12-10 9-4 2-5-1-5-13-2-1-2 6-9 11-3 6-4-2-7-9-2-5v-8l5-8 13-13 14-11 7-7 2-7-17 9-16 12-7 6-9 11-23-2-7-1 1-8 2-10-12 12-10 5h-5v-8l3-9 9-10 12-6 18-4 29-5 8-4 3-4-32 3-20 4-16 6-18 10h-7l-5-4-1-3v-8l1-3-15 10-8 3-4-1 1-8 6-11 8-7 8-4 15-4 8-1 25 1 39 6 9-1 6-4 6-7 13-21 9-10 5-4-16-10-15-14-11-15-6-14-3-10-1-7v-19l4-20 8-20 8-14 3-2 9 8 5 11 1 9-4 7-7 2-8-2-5-4 2 8 4 4 5 2 3 13 2 5 4 4-1 3-4 1h-10l-7-4 4 8 5 4 2 1h7l7-4 5-8h17l4 8 5 4 3 1h10l8-4 2-2-13-1-8-4-4-5-1-5-8 1h-10l-9-4-4-8 1-5 11-6 6-4h5l10 10 9 4 9-2 1-1-10-2-3-5-1-4v-8l1-4-11 6h-11l-6-4-2-5v-8l3-8h-10l-7-5-2-5 4-6 11-12 9-9 11-8 8-5-7 1-17 6-15 8-9 7-7 6-9 11-9 14-7 15-4 13-3 18v24l3 16 4 14v5l-15-1-18-4-16-7-8-6-9-8-9-14-6-17-2-12-2 3-1 6v12l4 13 8 17-1 4h-7l-19-7-17-9-13-10-10-13-6-12-1-6h-2l1 27-9-3-11-6-11-8-10-9-8-11-8-16-4-13v-6h-2l-4 18-2 8-11-7-12-11-8-10-5-13-1-6v-17l1-4h-2l-2 6-6 12-5-5-10-16-6-14-4-14-1-8v-17l4-16 5-12 7-10 7-6 16-9z" fill="#08633F"/>
<path transform="translate(927,781)" d="m0 0h1l1 21 3 19 5 15 7 14 10 14 11 12 12 10 15 10 23 11 20 7 21 5 15 2 30 1 22-2 26-5 29-9 24-10 22-12 16-11 11-9 11-10 9-11 10-15 7-14 3 1 6 13 2 9-1 12-4 11-7 12-12 13-8 8-18 13-22 12-23 10-21 7-28 7 16-1 24-4 21-6 22-9 16-8 8-5h2l-2 4-11 13-7 8-11 9-15 11-18 10-21 9-18 6-22 5-20 3-10 1h-44l-31-4-26-6-27-9-20-9-16-9-16-11-14-12-12-12-12-17-8-16-5-17-1-6v-16l7-14h2l9 21 11 21 8 12 10 13 9 9 5 3-12-16-7-11-11-21-6-21-1-15 1-11 6-16 8-10z" fill="#EE793F"/>
<path transform="translate(1260,937)" d="m0 0 5 1 7 7 7 14v16l-4 12-7 13-12 13-10 8-9 6-4 11-3 16v37l2 19 15-2h35l18 2 10 2v2l-18 5h-3v2l39-2h7l13 7v2l-12 2-31 2h-22l-8-1 3 3 11 3 10 1 51 2 14 3 5 4 5 11 2 9v7l-5 1-10-3-5-6v-2h-2l1 4v7l-5 1h-8l-5-3-9-7-15-7-17-5-12-2h-10l32 11 14 8 5 7 1 9-9 17h-3l-8-6-5-5v-11l-4 1-6 9-10-1-47-10-28-8-19-7-8-5-4-5-12-27-13-22-11-14-7-8-7-6-3-6 5-15 14-29 3-8 12-10 10-8 20-18 34-17 18-12 10-8 10-9z" fill="#08633F"/>
<path transform="translate(1220,580)" d="m0 0h7l-2 18-6 41-7-3-6-4-7-6h-9l-33 5-6 28-4 20 24-5 13-5 3-1-2 10-11 50-4-1-4-7v-2l-12 1-13 2-3 3-12 53-1 5 5 4 11 7 11 8 1 2-11 2-83 10-19 2v-3l10-8 13-11 5-6 4-13 12-50 11-47 13-54v-7l-10-8-11-9 2-2 49-7 66-10z" fill="#134E72"/>
<path transform="translate(917,427)" d="m0 0 4 2 9 8 19 14 17 11 11 7 14 6 26 8 15 4 23 4 12 1h42l18-2 23-5 18-6 19-10 19-1-1 4-9 11-10 8-14 8-3 1 10-1 12-5 11-6 14-11h3l-1 6-8 11-9 9-18 13-17 9-25 10-25 7-25 4-9 1h-33l-32-4-24-5-17-5-23-10-10-6-12-9-14-14-1-3 1-14 5 2 20 12 25 12 15 5h4l-25-13-12-8-9-7-10-9-8-11-5-10-2-7v-7z" fill="#EE793F"/>
<path transform="translate(1522,294)" d="m0 0 2 1-12 14-17 17-11 9-18 14-21 14-23 13-19 8-10 3 1 1 15 1-3 3-16 8-20 8-31 10-26 6-18 3-24 2 14 4 14 2v2l-20 7-24 7-27 5-26 3-15 1h-41l-24-2v2l17 4 15 3-4 4-13 6-14 4-13 2h-29l-11-4-6-4v-4l10-4 42-12 43-15 30-12 23-10 28-13 22-12 15-4 10-2h25l18-2 21-5 18-6 20-9 17-9 26-16 24-16 19-12 23-12 11-4z" fill="#ABD0A1"/>
<path transform="translate(1414,680)" d="m0 0 16 1 45 6 23 5 8 4 1 4v14l-2 18-4 15-8 15-9 10-10 7-10 4-4 1h-10l-2-1v-4l4-4-2-1-20 7h-13l-8-4-3-3v-3l10-8 2-3-10 3-7 1h-19l-5-5-2-4 1-9 20-7 11-6 7-8 5-8-13 9-14 7-15 5h-2l-2-4v-12l4-16 6-9 8-7 17-8z" fill="#08633F"/>
<path transform="translate(821,730)" d="m0 0 9 1 16 8 12 9 29 29-2 4-6 5-9 3-12-1-12-6-7-5 6 11 9 8 9 3 12 1-2 9-5 7-11 5h-11l-13-4-10-4 9 10 9 6-2 5-4 4-6 2h-11l-13-5-6-4-2-2 2 6 1 4-7 6-7-1-9-6-7-7-11-19-6-16-2-8v-12l8-10 14-12 16-10 16-8z" fill="#08633F"/>
<path transform="translate(592,641)" d="m0 0 6 1 8 4 8 8 8 14 6 17 1 5v19l-4 20-9 27-16 38-6 17-4 17h-3l-14-11-10-8-12-11-16-16-10-4h-11l-11 4-13 6-8 1 3-5 7-7 16-11 16-8 5-2h9l10 6 8 8 13 17 7 10-1-5-6-12-10-13-9-9-10-7-4-2h-9l-10 4-14 7h-4l2-6 8-8 10-7 16-8 8-3h5l7 8 13 14 14 19 7 13v2h2l-4-16-6-12-8-12-10-13-9-10-3-2-10 1-4 1 1-4 13-8 9-1 8 4 11 12 10 14 9 15-1-8-6-15-8-12-8-10-11-9-7-4 4-3 14-7 7-1 8 9 10 13 9 14 5 10v-8l-5-14-9-14-9-11-5-4-2-1h-12l-7 2h-4l2-4 8-7 10-4h7l12 6 13 11 9 11 4 4-2-9-6-11-8-9-13-8-7-2-15-1 2-5 6-7z" fill="#08633F"/>
<path transform="translate(846,672)" d="m0 0h24l7 3 8 7 7 7 9 11 13 16 11 14 2 4 2 23 1 9-12 6-14 10-11 11-4 6h-2l1-5 7-8 3-8 1-6-6-2-8-6-9-10-9-12-7-8-11-8-5-2-1-15-2-9-2-7-5-2-1-1v-7l2-7 6-3z" fill="#F7F7F5"/>
<path transform="translate(958,977)" d="m0 0 6 1 16 8 17 7 20 6 19 3 28 2h15l30-2 22-3 7-1-6 7-13 10-13 8-3 1h-24l-33-4-35-7-30-8-24-9-12-6h-2l4 5 11 7 17 8 30 10 28 7 31 6 13 2-1 3-20 8-10 2-22-3-24-6-26-9-25-12-16-11-8-9 1-4 5-4 4-4 14-6z" fill="#ABCFA0"/>
<path transform="translate(1166,336)" d="m0 0h7l4 8 3 14v7l8-4 11-9 8-12 10 3 15 8 3 4-58 19-29 8-6 1-7-13-9-7-9-3-5 13-10 21-6 8-10 5-8 1-9-13-8-7 1-5 5-8 6 1 10 6 3 3 4-1 6-14 6-22 2-7 10-4h7l15 15 10 13 1 3 5-3h2l8-16 3-12z" fill="#EE793F"/>
<path transform="translate(1023,188)" d="m0 0 9 1 13 7 15 13 11 7 11 4 10 1-2 5-15 11-7 8-11 7-14 4-8 1-24 1v-2l14-7-2-4-8-6-6-8-1-3v-14l1-7-10-2 2-4 7-7 10-5z" fill="#020403"/>
<path transform="translate(1167,119)" d="m0 0h9l7 3 5 6v9l-4 11-8 14-9 12-2 3-9-1-24-5-17-2h-31l2-4 11-11 16-12 13-8 16-8 15-5z" fill="#EE793F"/>
<path transform="translate(1050,144)" d="m0 0h13l14 2-2 4-16 16-10-1h-14l-21 5-14 7-11 9-8 10-8 16-4 13-2 15-10 9-9 9h-2l-2-13 1-14 4-17 8-16 8-11 9-10 11-9 13-8 12-6 21-7z" fill="#EE7940"/>
<path transform="translate(806,699)" d="m0 0h14l6 3 4 6 1 4v8l-3 1-16 2-19 7-15 8-14 10-10 9-8 9-3 6h-2l-1-3v-7l4-12-5 1h-7l-2-3 1-5 6-10 9-9 15-10 17-8 18-5z" fill="#EE793F"/>
<path transform="translate(490,576)" d="m0 0h7l19 4 18 6v22l-1 4 6-5 6-9 2-4 8 5 1 4-3 12-6 11-1 3 10-7 3-1 2-4 7-8 7 6 3 3-13 24 11-6 11-10 7 5v2l-12 7-11 10-8 11-3 1-10-19-7-10v-2l-4-2-7-8-9-10-13-13-8-7-9-8z" fill="#07623E"/>
<path transform="translate(912,1009)" d="m0 0 4 2 17 9 28 12 34 13 29 10-1 2-22 6h-16l-18-4-19-8-11-6-14-10-9-8-6-9 3-7z" fill="#ABCFA0"/>
<path transform="translate(1458,647)" d="m0 0h15l19 3 11 4 6 4 6 7 1 5-6 14-6-2-13-5-12-3-18-2-25-2-7-2 3-15 5-3 10-2z" fill="#EE7940"/>
<path transform="translate(1196,167)" d="m0 0h12l11 3 12 6 9 9 6 10 1 6-9-1-32-9-25-8v-4l7-8 4-3z" fill="#08633F"/>
<path transform="translate(1110,213)" d="m0 0h2l5 9 7 5 29 9 5 3 2 4-10-1h-16l-19 5-21 8-9 2h-7l5-5 8-7 9-10 8-16z" fill="#020202"/>
<path transform="translate(568,609)" d="m0 0 7 6 3 3-13 24 11-6 11-10 7 5v2l-12 7-11 10-8 11-3 1-10-19-7-10 1-3 11-7 4-2 2-4z" fill="#08633F"/>
<path transform="translate(752,624)" d="m0 0h8l11 4 9 6 12 10 7 5 5 2v2l-2 1h-12l-14-3-14-1-14 3h-6l3-5 10-7 6-2-11-2h-18l5-5 9-6z" fill="#020302"/>
<path transform="translate(1025,203)" d="m0 0 9 3 10 5-1 4-5 9-3 5h7l9-4 2-2h6l8 4v4l-6 6-9 3h-12l-9-3-6-4-5-7-1-3v-11l4-7z" fill="#F4F4F0"/>
<path transform="translate(902,1035)" d="m0 0 4 1 14 8 5 2v2l6 2 28 14 9 4-1 2-16 3h-8l-12-5-14-8-14-10-1-2z" fill="#ABD0A1"/>
<path transform="translate(1190,625)" d="m0 0h9l8 7v1l-26 3-14 3-8 37 3 1-10 2h-5l1-10 7-35 2-4z" fill="#F1F5F1"/>
<path transform="translate(1161,717)" d="m0 0 5 1 4 8v1l-19 2-4 1-4 15-9 36v6l1 2-5-2-6-5 4-19 9-39 4-4z" fill="#F1F5F0"/>
<path transform="translate(1454,185)" d="m0 0 10 4 19 13-1 5-6 9-4-2-5-2h-23l-3-4v-9l5-8z" fill="#020202"/>
<path transform="translate(928,361)" d="m0 0 7 6 10 9 16 9 2 1-2 11-3 10-2 1-15-10-11-8-2-4z" fill="#08633F"/>
<path transform="translate(1150,803)" d="m0 0h7l2 2v3l-11 2-53 7-41 6h-14l-4-4 1-2 31-4z" fill="#EDF2EB"/>
<path transform="translate(1167,284)" d="m0 0h24l10 1v3l-72 12-22 4h-5l5-5 12-6 19-5 18-3z" fill="#020202"/>
<path transform="translate(1207,340)" d="m0 0 10 3 15 8 3 4-46 15h-6v-3h2l1-2-2-1 14-11 6-8z" fill="#EA8652"/>
<path transform="translate(1144,1053)" d="m0 0h10l6 2-2 5-3 4 2 10 9 21v6l-5-2-9-9-10-15-4-10 1-8 2-3z" fill="#020202"/>
<path transform="translate(1187,668)" d="m0 0 4 1 5 6-4 18-9 37-1 6h-3l-5-6v-7l11-49z" fill="#F1F5F0"/>
<path transform="translate(1264,962)" d="m0 0h2l-1 8-5 8-8 4-11 1-6 6-12 1-2 6-7 2-7-1-7-4v-2l15-4 5-7 5 1 2 1 6-4 5-7 4 2 1 1h11l8-8z" fill="#020202"/>
<path transform="translate(1421,251)" d="m0 0 5 5 9 10 11 8-1 5-7 8-5 3-6-1-5-8-2-8v-17z" fill="#F3F4F0"/>
<path transform="translate(1227,579)" d="m0 0 4 2 5 6-1 6-8 50-2 1-6-4v-9z" fill="#EFF3EE"/>
<path transform="translate(1183,321)" d="m0 0h14l1 2v15l-6 14-5 5-3-13-6-12-4-5v-4z" fill="#F4F3EF"/>
<path transform="translate(1159,806)" d="m0 0h2l-1 4-15 2-9 3-12 2-9 3-13 1-8 2-12 1h-16l-8 2-2-1-1 2-14-1-3-2v-2h16l55-8 47-6h3z" fill="#EA8A57"/>
<path transform="translate(1166,336)" d="m0 0h7l4 8 2 7v13l-2-3-3-10-2-3-4-1-4 2 1 4-3 7-9 8h-2v2l-7-1-5-5-4-6-8-8-2-1v-2l-2-1-3-3-4-1v-2l-6 1-5 2-1 3v-5l10-4h7l15 15 10 13 1 3 5-3h2l8-16 3-12z" fill="#EA8652"/>
<path transform="translate(1142,326)" d="m0 0h13l1 2v14l-5 14h-4l-7-12-7-10 2-4 4-3z" fill="#F3F4F0"/>
<path transform="translate(1195,633)" d="m0 0h13l11 6v3h-6l-3-3-2-1h-8l-10 2h-7l-2-1v3l-8 4-8 10-4 15 7 2 6-2h6l-3 2-9 3h-9l1-10 6-27 9-3z" fill="#EA8956"/>
<path transform="translate(1088,346)" d="m0 0 4 1 1 3v16l-5 12-3-1-6-9-8-7 6-7 7-6z" fill="#F1F3EE"/>
<path transform="translate(1121,365)" d="m0 0 4 2 5 10v11l-4 4-17 6h-2l1-5 8-16z" fill="#F2F1EB"/>
<path transform="translate(1568,195)" d="m0 0 7 1 5 6v7l-4 5-8 5-5 1-5-5 1-9 5-8z" fill="#020202"/>
<path transform="translate(1211,579)" d="m0 0h12l-3 2-110 16-14 2h-9l1-2 6-2 30-4 24-4 24-3 12-2 20-2z" fill="#E98753"/>
<path transform="translate(854,522)" d="m0 0 4 2 14 12 10 10 10 15 3 8v5l-5-5-10-14-12-13-11-9-4-4v-6z" fill="#020302"/>
<path transform="translate(1086,713)" d="m0 0 1 4-13 55-4 15-4 6-7 7-11 9-6 5h-2v3l-3 2-1 2-1-1 1-7 15-13 9-8 6-9 5-16 3-12h2l2-11z" fill="#EA8854"/>
<path transform="translate(1224 1e3)" d="m0 0h2v11l-5 6-9 1-6-4-2 5-7 4h-7l-5-4-2-5 1-4 6 5h8l5-6 1-2 12 1 4-1z" fill="#020202"/>
<path transform="translate(1089,603)" d="m0 0 4 2 12 10 4 3v7l-13 54-7 30-2 3-1-4 5-23 8-35 4-13 2-12-3-6-9-8v-4h-2v-2h-2z" fill="#EA8753"/>
<path transform="translate(1056,395)" d="m0 0h5l8 6 4 8-1 4-6 5-11 4h-2l1-9 2-9z" fill="#F2F2EC"/>
<path transform="translate(935,411)" d="m0 0 20 9 2 2v22l-7-6-11-15-4-8z" fill="#08633F"/>
<path transform="translate(1292,314)" d="m0 0 3 1 5 12 1 11-12 3-8 1 1-8 8-16z" fill="#F1F3EE"/>
<path transform="translate(756,579)" d="m0 0h2v2l-8 7-12 11-4 2v2l-8 7-4 5h-2l-2 4-6 8-6 13-3 11v25l4 15 5 12 7 12 3 3 5 2-1 4-7-6-8-11-7-16-4-17v-23l4-15 7-13 14-15 10-10 8-7z" fill="#EB8550"/>
<path transform="translate(1325,306)" d="m0 0 5 1-2 9-5 8-6 7h-2l-3-11-4-7 1-3 8-3z" fill="#F1F2EC"/>
<path transform="translate(1207,346)" d="m0 0 8 1 9 4-1 5-10 4-11 2-11 1 2-4 1-3 6-3 5-6z" fill="#EF793F"/>
<path transform="translate(1230,316)" d="m0 0 5 1 2 5-1 9-5 10h-3l-3-12-4-7v-3z" fill="#F1EFE9"/>
<path transform="translate(1029,981)" d="m0 0 15 1 10 1 17 1 2 1h37l18-1-1 2-18 2h-44l-31-4-5-1z" fill="#EB8550"/>
<path transform="translate(1424,520)" d="m0 0 5 1 15 10 14 11 15 14 10 11 11 15 8 15 1 6-3-3-6-12-6-10-10-12v-2h-2l-7-8-8-7-5-5-9-8-10-7-13-8z" fill="#EB844F"/>
<path transform="translate(1167,521)" d="m0 0h3v2l-23 10-23 7-25 5-8 1h-15v-1l17-3 22-3 19-5 15-5 16-7z" fill="#EB844F"/>
<path transform="translate(986,534)" d="m0 0 8 1 15 3 10 1 2 1 22 2 14 2 10 1v1h-27l-28-4-23-5v-2z" fill="#EA8752"/>
<path transform="translate(1261,313)" d="m0 0h11l1 4-5 12-3 4-3-1-2-10-2-5v-3z" fill="#F1F1EA"/>
<path transform="translate(884,830)" d="m0 0h2l9 21 8 16-1 3-3-4-6-11v-3h-2l-3-7-4-2-5 2v4h-2l1-8z" fill="#EB8651"/>
<path transform="translate(1166,336)" d="m0 0h7l4 8 2 7v13l-2-3-3-10-2-3-4-1-2 2h-3l1-10z" fill="#EA8753"/>
<path transform="translate(1507,621)" d="m0 0h2v16l-1 7-3 1-19-4-9-1-32-1v-1l10-1h25l18 3h8z" fill="#EB844E"/>
<path transform="translate(1437,588)" d="m0 0 2 1-11 13-8 14-5 10 1 10 2 3 13 2v2l-11 2-9-11 1-8 8-16 9-13z" fill="#EB8550"/>
<path transform="translate(927,781)" d="m0 0h1v31l-2-3-2-9-3-8-4-1-8 11-1-4 8-10z" fill="#EA8752"/>
<path transform="translate(1355,608)" d="m0 0h2l1 2 1 9v16l-2 15-5 21-6 16-1 2h-2l3-9 5-17 3-13 2-17v-16z" fill="#EB834E"/>
<path transform="translate(1137,128)" d="m0 0 4 1-12 6-5 2v2h-3l-1 3-10 5-9 7-7 6 1 5 10 1v1l-16 2h-5l2-4 11-11 16-12 13-8z" fill="#EC824B"/>
<path transform="translate(1415,579)" d="m0 0 1 3-7 11-7 15-4 10-28 3h-2l1-4h12l16-3 6-16 6-11z" fill="#EB8651"/>
<path transform="translate(1067,375)" d="m0 0 6 1 10 6 1 4-8-3-5-2-3 1-1 4 1 3 3 3 1 4-4-2-7-6 1-5z" fill="#EB844E"/>
<path transform="translate(917,427)" d="m0 0 4 2 9 8 19 14 17 11 7 5-1 2-15-10-19-13-12-9h-9z" fill="#EB844F"/>
<path transform="translate(1089,603)" d="m0 0 4 2 12 10 4 3v7l-3 11-2 1 1-12-3-6-9-8v-4h-2v-2h-2z" fill="#E88A57"/>
<path transform="translate(1114,361)" d="m0 0h1l-1 8-12 25-5 7-3-1 2-6h2l1-5h2l1-5 3-5h2l3-12z" fill="#EB8651"/>
<path transform="translate(1158,727)" d="m0 0h13l3 1-2 4-7 2-1-1-7-1 1-3-5 1-2 2-1-1-1 3h-2l-1 5-2 6-1-4 3-11 5-2z" fill="#EA8956"/>
<path transform="translate(897,656)" d="m0 0 2 4 5 14 8 14 8 11 13 17 3 3-1 2-10-11-12-16-8-13-7-15-1-3z" fill="#EB844F"/>
<path transform="translate(988,880)" d="m0 0 5 2 16 8 15 6 15 5v1h-7l-22-8-16-8-5-3z" fill="#EB834E"/>
<path transform="translate(842,515)" d="m0 0 3 1-13 7-15 10-24 18-10 8v-3l16-13 19-14 18-11z" fill="#EB844E"/>
<path transform="translate(1262,909)" d="m0 0h2l-2 4-11 13-7 8-4 1 1-2h2l3-9 5-5 1-4z" fill="#EB844F"/>
<path transform="translate(983,967)" d="m0 0 11 2 12 5 9 2 7 2 5 2v1h-7l-21-6-15-5z" fill="#EB8550"/>
<path transform="translate(1288,814)" d="m0 0 3 1 6 13 1 4v10l-2-2-2-13h-2l-3-3-5 2 1-6z" fill="#EB8550"/>
<path transform="translate(1184,141)" d="m0 0h1l-1 7-8 14-9 12-2 3h-5l-1-3 7-3 10-14 3-7z" fill="#EB8550"/>
<path transform="translate(1134,777)" d="m0 0 3 4 5 10 8 6 5 3v2l2 1-5-1-11-8-6-4-2-3z" fill="#E68D5A"/>
<path transform="translate(1202,468)" d="m0 0h4l-1 4-4 5h-2l-3-4h-12l1-3 2-1z" fill="#EB8550"/>
<path transform="translate(1216,477)" d="m0 0h3l-1 6-8 11h-2l-1-5 4-8z" fill="#EB8550"/>
<path transform="translate(1086,713)" d="m0 0 1 4-11 47-2 2 1-11z" fill="#B3CB9D"/>
<path transform="translate(986,534)" d="m0 0 8 1 15 3 10 1 3 2v2l-10-1-23-5v-2z" fill="#EB844F"/>
<path transform="translate(1283,827)" d="m0 0v3l-4 8h-2l-2 4-4 6-6 7-1 2-5 2 2-4 10-12 10-15z" fill="#EB844E"/>
<path transform="translate(816,850)" d="m0 0h11l-1 2-14 4-10 1-11-1v-1l18-2z" fill="#CAD1AF"/>
<path transform="translate(1124,360)" d="m0 0 8 2v2h2l9 12 1 4 3-1 1 3-6 1-7-13-9-7-2-1z" fill="#EB8550"/>
<path transform="translate(1413,627)" d="m0 0 2 2 1 7 2 3 13 2v2l-11 2-9-11v-5z" fill="#EB8550"/>
<path transform="translate(756,579)" d="m0 0h2v2l-8 7-12 11-4 2v2l-8 7-4 5-3-1 16-16 8-7z" fill="#EC824C"/>
<path transform="translate(822,661)" d="m0 0h1l-1 10-3 17h-12v-1h6v-2l4-1 3-18z" fill="#EB8551"/>
<path transform="translate(1286,785)" d="m0 0h1l-1 7-8 24-1 2h-2l1-5 6-18z" fill="#EB844F"/>
<path transform="translate(852,528)" d="m0 0 7 6 11 9 11 12-1 3-12-13-16-15z" fill="#EB8550"/>
<path transform="translate(940,791)" d="m0 0 5 5 7 8 5 5-1 2-6-4-4-4v-2h-3l-3-5z" fill="#EB8551"/>
<path transform="translate(1431,659)" d="m0 0h2l3 6 6 3 9 1v1h-15l-7-2z" fill="#EB8651"/>
<path transform="translate(1064,379)" d="m0 0 4 2-1 5 1 3 3 3 1 4-4-2-7-6 1-5z" fill="#EA8752"/>
<path transform="translate(1162,349)" d="m0 0h2l1 4-3 7-9 8-3-1 4-2 2-4z" fill="#EB8550"/>
<path transform="translate(917,427)" d="m0 0 4 2 9 8-3 1-5-1h-5z" fill="#EB8651"/>
<path transform="translate(985,187)" d="m0 0 1 3-6 8-8 16h-2l1-6 8-14 2-4z" fill="#EB834E"/>
<path transform="translate(1137,128)" d="m0 0 4 1-12 6-5 2v2h-3l-1 3-6 3-2-1 4-4 17-10z" fill="#EB8652"/>
<path transform="translate(945,767)" d="m0 0 2 4 8 19 4 10h-2l-7-14-5-13z" fill="#EB844E"/>
<path transform="translate(1114,361)" d="m0 0h1l-1 8-7 15-2-2v-3h2l3-12z" fill="#EB844F"/>
<path transform="translate(983,148)" d="m0 0h5l-5 5-11 7 1-4 5-6z" fill="#E58A55"/>
<path transform="translate(988,880)" d="m0 0 5 2 16 8 3 2v2l-9-3-14-8z" fill="#EB834D"/>
<path transform="translate(1415,579)" d="m0 0 1 3-7 11-6 13h-1v-6l7-13z" fill="#EC824C"/>
<path transform="translate(1160,670)" d="m0 0 8 3 6-2h6l-3 2-9 3h-9v-5z" fill="#DA9B69"/>
<path transform="translate(1192,506)" d="m0 0h2l-1 3-14 9-3 2-4-1 6-4h2v-2l8-4z" fill="#EB844F"/>
<path transform="translate(1029,981)" d="m0 0 15 1 10 3v1l-14-1-11-2z" fill="#EC824C"/>
<path transform="translate(907,803)" d="m0 0 1 3-3 11-2 13h-1v-16l3-9h2z" fill="#EB8652"/>
<path transform="translate(917,445)" d="m0 0 2 3 5 10 4 5v3l3 1v2l-4-2-7-10-3-7z" fill="#EB834E"/>
<path transform="translate(1074,399)" d="m0 0 5 3 9 2v2l-6 2-5-1-3-5z" fill="#EB8550"/>
<path transform="translate(1447,648)" d="m0 0h18v1l-18 3-7-1 2-2z" fill="#EA8752"/>
<path transform="translate(1230,942)" d="m0 0h2v2l-16 11-7 4-3-1 15-9z" fill="#EB844F"/>
<path transform="translate(946,483)" d="m0 0 4 1 10 7 7 4-4 1-14-9-3-2z" fill="#EC834D"/>
<path transform="translate(1091,693)" d="m0 0 1 4-4 15-2-1 2-14z" fill="#DA9A67"/>
<path transform="translate(1193,482)" d="m0 0 1 3-11 8-4-1 8-7h4v-2z" fill="#EB8651"/>
<path transform="translate(1092,161)" d="m0 0h2l1 4 10 1v1l-19 1z" fill="#EA8A57"/>
<path transform="translate(1240,921)" d="m0 0h5l-2 5-2 2h-4l-1-2h-2v-2z" fill="#EA8652"/>
<path transform="translate(1216,500)" d="m0 0 2 1-8 8h-2l-1 3-9 6 2-4 10-9z" fill="#EB834D"/>
<path transform="translate(893,853)" d="m0 0h3l7 14-1 3-3-4-6-11z" fill="#EB844E"/>
<path transform="translate(1079,744)" d="m0 0 1 3-4 17-2 2 1-11 3-10z" fill="#BEB987"/>
<path transform="translate(779,633)" d="m0 0 4 2 13 10 5 3v2l-5-2-11-9-6-5z" fill="#EB834E"/>
<path transform="translate(1057,161)" d="m0 0h5l-2 4-5 1-7-2v-1z" fill="#EB8550"/>
<path transform="translate(920,785)" d="m0 0 2 1-7 7-6 9-1-4 8-10z" fill="#EC814B"/>
<path transform="translate(829,717)" d="m0 0 2 1v2l-3 1h-15l4-2z" fill="#EB8550"/>
<path transform="translate(816,850)" d="m0 0h11l-1 2-6 2h-6v-3z" fill="#D9D5B9"/>
<path transform="translate(744,762)" d="m0 0h4l-5 10h-2v-7z" fill="#E98854"/>
<path transform="translate(966,224)" d="m0 0h1v16l-4 1-1-2 3-7z" fill="#EA8753"/>
<path transform="translate(940,848)" d="m0 0h3l8 12-1 3-8-11z" fill="#EB844F"/>
<path transform="translate(956,199)" d="m0 0h2l-2 6-5 12h-1l1-8z" fill="#EC834D"/>
<path transform="translate(730,745)" d="m0 0h2v2l10 1-3 3h-7l-2-3z" fill="#EB8550"/>
<path transform="translate(702,680)" d="m0 0h2l4 13v6l-2-3-4-12z" fill="#EC824C"/>
<path transform="translate(1093,542)" d="m0 0m-2 0 2 1v2l-2 1h-15v-1z" fill="#EB8651"/>
<path transform="translate(1177,121)" d="m0 0h5l5 5v5l-5-5-1-2-4-2z" fill="#EA8753"/>
<path transform="translate(1147,530)" d="m0 0v3l-9 3h-6l2-2z" fill="#EB8551"/>
<path transform="translate(754,638)" d="m0 0h7l1 2-9 3-3-1 2-3 2 1z" fill="#EB844E"/>
<path transform="translate(1413,627)" d="m0 0 2 2 1 7-2 2-3-4v-5z" fill="#EA8652"/>
<path transform="translate(1437,588)" d="m0 0 2 1-11 13-2-1z" fill="#EB844E"/>
<path transform="translate(1070,146)" d="m0 0h7l-2 4-3 3h-2z" fill="#EB8551"/>
<path transform="translate(1012,892)" d="m0 0 10 3 4 3h-6l-8-4z" fill="#EB8550"/>
<path transform="translate(893,789)" d="m0 0 3 1-7 9h-2l1-5z" fill="#BED2AF"/>
<path transform="translate(818,700)" d="m0 0 7 1 4 5v5l-4-5-4-4z" fill="#EB8550"/>
<path transform="translate(1283,827)" d="m0 0v3l-4 8h-3l2-5 3-5z" fill="#EB8551"/>
<path transform="translate(1145,794)" d="m0 0 10 6v2l2 1-5-1-8-6z" fill="#EB8550"/>
<path transform="translate(1415,579)" d="m0 0 1 3-7 11-2-3z" fill="#EB844F"/>
<path transform="translate(747,644)" d="m0 0h2v2l-5 4-2 3h-3l2-4z" fill="#E69260"/>
<path transform="translate(968,184)" d="m0 0h2l-1 4h-2v2h-2l-2 4-1-3z" fill="#EB844F"/>
<path transform="translate(1184,141)" d="m0 0h1l-1 7-2 4h-3l2-5z" fill="#EA8652"/>
<path transform="translate(1300,760)" d="m0 0 1 3-6 10h-2l2-5z" fill="#EB844E"/>
<path transform="translate(1368,617)" d="m0 0 11 1 1 2-12 1z" fill="#EB844E"/>
<path transform="translate(1130,535)" d="m0 0 5 1-4 2-10 2 3-3z" fill="#EC824C"/>
<path transform="translate(852,528)" d="m0 0 7 6 6 5h-3l-8-7z" fill="#EC824B"/>
</svg>
